<svg xmlns="http://www.w3.org/2000/svg" width="290.51" height="290.51" viewBox="-10 -20 60 50" xmlnsV="https://vecta.io/nano">
  <g transform="rotate(-20 19.216 8.645)">
    <!-- Globo terrestre -->
    <circle cx="19.216" cy="8.645" r="20" stroke="#23ce6b" stroke-width="1.5" fill="none"/>
    <!-- Meridiani (linee verticali) -->
    <path d="M 9.216 8.645 A 10 10 0 0 1 19.216 -1.355" stroke="#23ce6b" stroke-width="0.8" fill="none" opacity="0.6"/>
    <path d="M 19.216 -1.355 A 10 10 0 0 1 29.216 8.645" stroke="#23ce6b" stroke-width="0.8" fill="none" opacity="0.6"/>
    <path d="M 9.216 8.645 A 10 10 0 0 0 19.216 18.645" stroke="#23ce6b" stroke-width="0.8" fill="none" opacity="0.6"/>
    <path d="M 19.216 18.645 A 10 10 0 0 0 29.216 8.645" stroke="#23ce6b" stroke-width="0.8" fill="none" opacity="0.6"/>
    <!-- Paralleli (linee orizzontali) -->
    <ellipse cx="19.216" cy="8.645" rx="20" ry="7" stroke="#23ce6b" stroke-width="0.8" fill="none" opacity="0.6"/>
    <ellipse cx="19.216" cy="8.645" rx="20" ry="14" stroke="#23ce6b" stroke-width="0.8" fill="none" opacity="0.6"/>
    <ellipse cx="19.216" cy="8.645" rx="20" ry="3.5" stroke="#23ce6b" stroke-width="0.8" fill="none" opacity="0.6"/>
  <!-- Pillola scalata 1/3 più grande (4/3 = 1.333) -->
  <defs>
    <clipPath id="A"><path d="M33.742 18.236v3.555c.415-.542.069-.064 2.074-2.73l.607-.824zm25.088 0l-.877 1.291-11.355 15.188c-5.574 7.21 1.814-2.517-4.754 6.172-1.249 1.692-1.51 1.791-1.846 2.703.223.385.514.795.973 1.344.043.051.14-.039.199-.008.397.214.762.486 1.141.73l3.623 2.484.186.133c.543-.111 1.29.469 1.629.857.797.202 1.775.558 1.559 1.188-1.694 4.932-3.911 9.759-6.789 14.115h4.994c3.72-2.555 3.434-1.738 4.494-7.555l-.156-1.195c-.044-.381.235.763.166 1.141l-.01.055.121.928c.064.614.035 2.795.035 2.93l-.029 3.697H83.65V18.236zM47.748 49.131l-.482-.117c-.046-.01-.093-.012-.139-.021.131.092.258.19.391.279.511.343.492.159.23-.141zm-.621-.139l-1.008-.719c-.147.03-.278.107-.383.256-.053.075-.102.153-.154.229.519.054 1.033.132 1.545.234zm-9.014-10.635l.646 2.006c.619 1.676.751 2.384 1.236 3.223.093-.421.138-.835-.018-1.229-.736-1.863-1.306-3.113-1.865-4zm-4.371 23.309v2.768h.313l.021-2.533-.334-.234zm3.889 2.707c.007.022.031.039.041.061h.061c-.029-.018-.073-.043-.102-.061z" fill="#23ce6b" fill-opacity="1" fill-rule="nonzero" stroke="none"/></clipPath><clipPath id="B"><path d="M31.455 16.541c.249.471.484.95.664 1.451l1.416 4.072c.349-.452.076-.071 2.281-3.004l1.859-2.52zm22.41 8.512l-7.268 9.662c-5.574 7.21 1.814-2.517-4.754 6.172-1.249 1.692-1.51 1.791-1.846 2.703.223.385.514.795.973 1.344.043.051.14-.039.199-.008.397.214.762.486 1.141.73l3.623 2.484.186.133c.543-.111 1.29.469 1.629.857.797.202 1.775.558 1.559 1.188l-.576 1.604h5.135zm-6.117 24.078l-.482-.117c-.046-.01-.093-.012-.139-.021l.391.279c.511.343.492.159.23-.141zm-.621-.139l-1.008-.719c-.147.03-.278.107-.383.256l-.154.229 1.545.234zm-9.014-10.635l.646 2.006c.619 1.676.751 2.384 1.236 3.223.093-.421.138-.835-.018-1.229-.736-1.863-1.306-3.113-1.865-4z" fill="#23ce6b" fill-opacity="1" fill-rule="nonzero" stroke="none"/></clipPath><clipPath id="C"><path d="M10.756 49.971v12.611h19.332l-1.502-4.793-1.004-.943c-.816-.82-1.543-1.737-2.17-2.709-1.254-1.943-1.868-3.045-2.354-4.166z" fill="#23ce6b" fill-opacity="1" fill-rule="nonzero" stroke="none"/></clipPath>  </defs>
  <g transform="scale(1.333 1.1) translate(-4.8 -1.5)">
    <g transform="translate(-111.181 -102.525)"><g fill="#fff" transform="matrix(.264583 0 0 .264583 110.30179 102.23011)"><path d="M45.518 64.301c-.382-.11-3.148-.255-6.197-.325l-5.578-.198c-.04-.04.967-1.388 2.237-2.996 1.646-2.084 2.482-2.996 2.912-3.176.491-.205.603-.352.603-.785s1.459-2.354 7.637-10.064L57.949 33.24l3.179-3.988.843-.055.843-.055v-1.045c0-1.038.01-1.057 1.552-3.018l1.608-2.029c.031-.031.491.767 1.024 1.773 1.234 2.332 2.048 3.398 2.956 3.871.637.332 1.035.376 3.346.372 2.287-.004 2.716-.052 3.344-.376.98-.505 1.833-1.702 2.787-3.91 1.163-2.691 2.852-5.997 3.245-6.354.325-.295.35-.282.554.288.118.328.26 1.334.317 2.236l.103 1.639-3.685 5.032c-3.186 4.35-17.075 21.915-21.387 27.047l-4.783 5.694-3.325 3.959-2.13.09c-1.293.055-2.401.012-2.82-.108z" clip-path="url(#A)"/><path d="M34.08 50.059c-3.046-4.092-4.376-6.838-5.45-11.251l-.562-2.31.447-.369c.246-.203 2.735-2.342 5.531-4.753l5.222-4.379c.076.002.259.265.409.583.526 1.124 1.169 1.312 4.429 1.3 3.773-.014 6.47-.228 6.356-.504a355.54 355.54 0 0 0-1.793-3.741l-1.708-3.533 3.225-2.251 3.403-2.31c.114-.038.196 2.249.228 6.374l.05 6.433-3.597 4.471-8.929 11.159-5.533 6.909c-.154.169-.564-.266-1.727-1.828z" clip-path="url(#B)"/><path d="M26.571 62.276c-1.337-.71-3.833-1.483-4.7-1.456-.374.011-.43.044-.181.104.825.198.553.369-1.044.654-2.299.411-2.413.406-2.084-.09.518-.78 2.301-1.386 2.557-.869.051.102.072.084.047-.039-.053-.267-2.163-1.444-3.489-1.947-.766-.29-1.168-.333-2.169-.23-1.224.126-1.226.127-.416.231.648.083.743.136.466.26-.701.315-2.031-.381-3.464-1.815l-1.34-1.34v-1.4-1.4l1.477-1.484 1.477-1.484 1.346 1.257c3.428 3.201 8.519 5.767 12.511 6.304l2.483.334.947.127-1.816 2.305c-.999 1.268-1.872 2.296-1.941 2.285s-.369-.149-.667-.307z" clip-path="url(#C)"/></g><rect width="38.432" height="17.29" x="111.181" y="102.525" rx="8.315" ry="8.561" fill="#23ce6b"/><path d="M119.359 103.284c-3.953 0-7.136 3.483-7.136 7.808v.154c0 4.326 3.183 7.808 7.136 7.808h11.25v-15.771z" fill="#fff"/><path d="M119.654 104.211c-3.513 0-6.341 3.071-6.341 6.885v.136c0 2.668 1.385 4.971 3.419 6.114a5.667 6.591 0 0 1-1.991-5.016 5.667 6.591 0 0 1 1.045-3.813h1.041v-.007h11.656v9.606h1.166v-13.906zm1.383 1.461h7.499v1.605h-11.684c.804-.957 2.373-1.605 4.185-1.605z" fill="#23ce6b"/><g fill="#fff"><path d="M140.405 105.643h-7.499v1.605h11.684c-.804-.957-2.373-1.605-4.185-1.605z"/><path d="M131.792 104.181v13.906h1.166l.007-12.376 3.526 2.77 9.163.007c1.664 2.714 1.332 6.558-.946 8.828 2.315-1.283 3.591-4.005 3.411-6.606-.086-2.805-1.979-5.567-4.744-6.313-1.274-.342-2.602-.177-3.905-.216h-7.679z"/></g><g fill="#23ce6b"><ellipse cx="140.291" cy="110.453" rx="5.927" ry="4.665"/><path d="M132.916 118.604l-.026-6.599-.026-6.599 3.626 3.278 3.626 3.278-3.6 3.321z"/></g><path d="M132.803 105.431l3.353.006 3.353.006-1.676 1.571-1.676 1.571-1.676-1.578z" fill="#fff"/><path d="M132.803 103.87l3.353.006 3.353.006-1.676 1.571-1.676 1.571-1.676-1.578z" fill="#23ce6b"/>
    </g>
  </g>
  </g>
</svg>
