<?xml version="1.0" encoding="UTF-8"?>
<svg version="1.1" viewBox="0 0 310 67" xmlns="http://www.w3.org/2000/svg" xmlnsCc="http://creativecommons.org/ns#" xmlnsDc="http://purl.org/dc/elements/1.1/" xmlnsRdf="http://www.w3.org/1999/02/22-rdf-syntax-ns#">
<metadata>
<rdf>
<ccWork rdfAbout="">
<dcFormat>image/svg+xml</dcFormat>
<dcType rdfResource="http://purl.org/dc/dcmitype/StillImage"/>
<dcTitle/>
</ccWork>
</rdf>
</metadata>
<g transform="translate(-.21376 .021039)" fill="#ff2a2a">
<path d="m26.344 65.959c-17.923-3.5459-29.945-23.059-24.9-40.414 3.1817-10.945 10.155-18.754 20.052-22.457 5.6657-2.1198 6.598-2.1497 58.381-1.8708l52.623 0.28343 4.9739 2.4476c6.3441 3.1218 12.457 9.2344 15.578 15.578 2.0808 4.2285 2.4454 6.3977 2.4328 14.474-0.013 8.3195-0.34356 10.126-2.6605 14.54-2.783 5.3017-9.627 12.284-14.46 14.753-6.4847 3.3126-13.14 3.7072-60.664 3.5969-25.96-0.060261-49.071-0.47959-51.357-0.93185zm12.874-8.4887c0.98472-0.37787 0.20666-1.7563-2.709-4.7992-5.4703-5.7091-7.8122-10.896-8.3205-18.427-0.52474-7.7752 0.51204-9.2433 6.5276-9.2433 3.6302 0 4.5696 0.37619 4.9942 2 0.44027 1.6836 1.364 2 5.839 2h5.316l-10.728-22.5h-6.8188c-14.166 0-24.792 9.5967-26.055 23.532-1.0899 12.02 5.4184 22.107 17.19 26.642 3.1703 1.2215 12.364 1.7171 14.765 0.79595zm-7.0674-40.472c1.4797-4.2448 2.4884-4.4727 3.7521-0.84775 0.60358 1.7314 1.0974 3.3059 1.0974 3.4988s-1.3266 0.35078-2.948 0.35078c-2.8417 0-2.9102-0.10825-1.9015-3.0018zm30.91 5.7518 0.06003-6.25 3.1535 6.25c3.1136 6.1708 3.2067 6.25 7.3444 6.25 4.1368 0 4.2202-0.0709 6.4704-5.5 1.2538-3.025 2.6468-5.5 3.0956-5.5 0.44879 0 0.81599 2.475 0.81599 5.5v5.5h9.0655l-0.5655-22.5-12.517-0.59588-6.6621 14.596-7.3457-14.5h-11.975v23h9l0.06003-6.25zm105.94 26.68c0-9.2456 0.0733-9.5587 2.1659-9.25 1.4416 0.21268 2.5732 1.4901 3.3838 3.8196l1.2179 3.5 1.1162-2.8151c0.61389-1.5483 1.1162-3.2358 1.1162-3.75 0-0.5142 0.9-0.9349 2-0.9349 1.8596 0 2 0.66667 2 9.5 0 7.7778-0.27193 9.5-1.5 9.5-1.1774 0-1.517-1.4518-1.579-6.75-0.0679-5.8052-0.22186-6.3581-1.1-3.95-1.2905 3.5389-2.9816 3.0238-4.5146-1.3751-1.1216-3.2185-1.197-2.958-1.25 4.3251-0.04513 6.1971-0.35699 7.75-1.5564 7.75-1.2288 0-1.5-1.73-1.5-9.5696zm16.503 6.5561c2.3811-10.841 4.2306-15.496 6.2778-15.799 1.7347-0.25692 2.3084 0.45247 3.2349 4 0.61944 2.3718 1.7678 6.5263 2.5519 9.2324 0.78412 2.706 1.2216 5.1241 0.97219 5.3735-1.0513 1.0513-3.5397-0.89059-3.5397-2.7622 0-1.5875-0.65131-2.0314-2.981-2.0314-2.3457 0-3.1147 0.53277-3.6084 2.5-0.9537 3.7999-3.7467 3.3067-2.9077-0.51343zm7.8812-7.7366c-0.3597-1.5125-1.0296-3.425-1.4886-4.25-0.67079-1.2055-0.84329-1.1074-0.87871 0.5-0.0242 1.1-0.3154 3.0125-0.64704 4.25-0.48752 1.8192-0.19407 2.25 1.5327 2.25 1.8217 0 2.0395-0.40428 1.4817-2.75zm9.8159 9.55c-1.8466-1.8466-1.5802-15.24 0.33464-16.829 2.1868-1.8149 7.6627-1.4218 9.1844 0.65922 2.4627 3.368 0.56686 4.7983-2.4119 1.8196-3.1488-3.1488-4.7852-1.3972-5.109 5.4689-0.32344 6.8567 0.74323 8.7179 3.998 6.9761 2.5093-1.3429 2.367-4.895-0.19612-4.895-1.1 0-2-0.45-2-1s1.575-1 3.5-1c3.3024 0 3.5 0.18881 3.5 3.345 0 1.9706-0.7514 4.025-1.8287 5-2.1316 1.9291-7.2382 2.188-8.9713 0.45499zm14.303-1.8134c2.3811-10.841 4.2306-15.496 6.2778-15.799 1.7347-0.25692 2.3084 0.45247 3.2349 4 0.61944 2.3718 1.7678 6.5263 2.5519 9.2324 0.78412 2.706 1.2216 5.1241 0.97219 5.3735-1.0513 1.0513-3.5397-0.89059-3.5397-2.7622 0-1.5875-0.65131-2.0314-2.981-2.0314-2.3457 0-3.1147 0.53277-3.6084 2.5-0.9537 3.7999-3.7467 3.3067-2.9077-0.51343zm7.8812-7.7366c-0.3597-1.5125-1.0296-3.425-1.4886-4.25-0.67079-1.2055-0.84329-1.1074-0.87871 0.5-0.0242 1.1-0.3154 3.0125-0.64704 4.25-0.48752 1.8192-0.19407 2.25 1.5327 2.25 1.8217 0 2.0395-0.40428 1.4817-2.75zm8.6159 9.5582c0-0.65551 1.8-4.2217 4-7.9248s4-6.9918 4-7.3082c0-0.31634-1.8-0.57517-4-0.57517s-4-0.45-4-1c0-0.55556 2.6667-1 6-1 3.3 0 6 0.44207 6 0.98239 0 0.54031-1.8 3.9232-4 7.5176s-4 6.7523-4 7.0176c0 0.26531 1.8 0.48239 4 0.48239 2.8889 0 4 0.41667 4 1.5 0 1.1667-1.3333 1.5-6 1.5-3.9772 0-6-0.40182-6-1.1918zm16 0c0-0.65551 1.8-4.2217 4-7.9248s4-6.9918 4-7.3082c0-0.31634-1.8-0.57517-4-0.57517s-4-0.45-4-1c0-0.55556 2.6667-1 6-1 3.3 0 6 0.44207 6 0.98239 0 0.54031-1.8 3.9232-4 7.5176s-4 6.7523-4 7.0176c0 0.26531 1.8 0.48239 4 0.48239 2.8889 0 4 0.41667 4 1.5 0 1.1667-1.3333 1.5-6 1.5-3.9772 0-6-0.40182-6-1.1918zm16 0.09821c0-0.60149 0.9-1.329 2-1.6166 1.7556-0.45911 2-1.364 2-7.4064 0-6.2167-0.1937-6.8834-2-6.8834-1.1 0-2-0.45-2-1 0-0.55556 2.6667-1 6-1s6 0.44444 6 1c0 0.55-0.9 1-2 1-1.8063 0-2 0.66667-2 6.8834 0 6.0424 0.24436 6.9473 2 7.4064 4.2567 1.1132 1.8996 2.7103-4 2.7103-3.6758 0-6-0.42364-6-1.0936zm16-8.4064c0-8.7459 0.15449-9.5 1.9463-9.5 1.475 0 2.5041 1.5133 4.25 6.25l2.3037 6.25 0.29772-6.25c0.22202-4.661 0.66695-6.25 1.75-6.25 1.1678 0 1.4523 1.861 1.4523 9.5 0 8.5982-0.17672 9.5-1.8618 9.5-1.3789 0-2.5259-1.7506-4.4224-6.75l-2.5606-6.75-0.0776 6.75c-0.061 5.2988-0.40017 6.75-1.5777 6.75-1.2281 0-1.5-1.7222-1.5-9.5zm17 8c0-0.83333 0.88889-1.5 2-1.5 1.7978 0 2-0.66667 2-6.5936 0-5.7526-0.2551-6.6603-2-7.1166-3.8813-1.015-1.9327-2.2897 3.5-2.2897 3.025 0 5.5 0.45 5.5 1s-0.9 1-2 1c-1.8095 0-2 0.66667-2 7s0.19048 7 2 7c1.1111 0 2 0.66667 2 1.5 0 1.1515-1.2778 1.5-5.5 1.5s-5.5-0.34848-5.5-1.5zm-129.5-27.513c2.3811-10.841 4.2306-15.496 6.2778-15.799 1.7347-0.25692 2.3084 0.45247 3.2349 4 0.61944 2.3718 1.7678 6.5263 2.5519 9.2324 0.78412 2.706 1.2216 5.1241 0.97219 5.3735-1.0513 1.0513-3.5397-0.89059-3.5397-2.7622 0-1.5875-0.65131-2.0314-2.981-2.0314-2.3457 0-3.1147 0.53277-3.6084 2.5-0.9537 3.7999-3.7467 3.3067-2.9077-0.51343zm7.8812-7.7366c-0.3597-1.5125-1.0296-3.425-1.4886-4.25-0.67079-1.2055-0.84329-1.1074-0.87871 0.5-0.0242 1.1-0.3154 3.0125-0.64704 4.25-0.48752 1.8192-0.19407 2.25 1.5327 2.25 1.8217 0 2.0395-0.40428 1.4817-2.75zm8.6159 1.25c0-8.5982 0.17672-9.5 1.8618-9.5 1.3789 0 2.5259 1.7506 4.4224 6.75l2.5606 6.75 0.0776-6.75c0.061-5.2988 0.40013-6.75 1.5776-6.75 1.2281 0 1.5 1.7222 1.5 9.5 0 8.7459-0.15449 9.5-1.9463 9.5-1.475 0-2.5041-1.5133-4.25-6.25l-2.3037-6.25-0.29772 6.25c-0.22202 4.661-0.66695 6.25-1.75 6.25-1.1678 0-1.4523-1.861-1.4523-9.5zm16 0v-9.5h4.345c6.0622 0 7.655 2.0334 7.655 9.772 0 5.185-0.33788 6.3512-2.2225 7.6713-1.2224 0.85619-3.9224 1.5567-6 1.5567h-3.7775zm8.8099 0.53037c0.24351-4.2983-0.0651-5.7438-1.4411-6.75-3.611-2.6404-4.3688-1.6368-4.3688 5.7861v7.0664l2.75-0.31642c2.5814-0.29702 2.769-0.65175 3.0599-5.7861zm7.1901-0.53037v-9.5h4.8c2.64 0 5.34 0.54 6 1.2 1.7236 1.7237 1.4997 7.5329-0.32984 8.5568-1.3731 0.76844-1.3731 1.2312 0 4.5176 1.8665 4.4672 1.8764 4.7257 0.18171 4.7257-0.74146 0-2.1598-1.8-3.1519-4s-2.4104-4-3.1519-4c-0.90615 0-1.3481 1.3114-1.3481 4 0 2.8889-0.41667 4-1.5 4-1.2281 0-1.5-1.7222-1.5-9.5zm7.4182-1.107c0.86999-0.33384 1.5818-1.6357 1.5818-2.893 0-2.2192-1.6767-3.5-4.5818-3.5-0.95415 0-1.4182 1.1453-1.4182 3.5 0 3.551 0.99898 4.2051 4.4182 2.893zm8.5818 1.107v-9.5h6c6.8268 0 8.2041 1.7255 1.75 2.1925-3.7847 0.27383-4.25 0.58122-4.25 2.8075 0 2.167 0.49943 2.5413 3.75 2.8104 2.0625 0.1707 3.75 0.70604 3.75 1.1896s-1.6875 1.0189-3.75 1.1896c-3.2557 0.26945-3.7917 0.67286-4.0664 3.0604-0.30431 2.6447-0.1416 2.75 4.25 2.75 3.3924 0 4.5664 0.38566 4.5664 1.5 0 1.1667-1.3333 1.5-6 1.5h-6zm15.373 7.75c0.27933-0.9625 1.01-3.775 1.6236-6.25 2.4184-9.7538 3.0874-11.13 5.2527-10.807 1.6633 0.24821 2.5028 1.9331 4.3881 8.8069 2.7714 10.104 2.7622 10 0.88147 10-0.81452 0-1.7633-1.125-2.1084-2.5-0.48127-1.9175-1.2759-2.5-3.4106-2.5s-2.9294 0.58247-3.4106 2.5c-0.34511 1.375-1.3242 2.5-2.1758 2.5-1.0014 0-1.3689-0.61816-1.0405-1.75zm8.0896-9.5c-0.72511-3.3846-1.2152-4.3726-1.819-3.6667-0.196 0.22917-0.63475 1.8792-0.975 3.6667-0.53542 2.8128-0.34227 3.25 1.4358 3.25 1.794 0 1.9662-0.41201 1.3582-3.25z"/>
<path d="m26 65.639c-7.6758-1.7382-10.942-3.7012-16.77-10.077-6.181-6.763-8.7059-13.433-8.5851-22.678 0.15679-12 7.3218-23.264 18.195-28.604l5.6605-2.7798h108l4.7146 2.4096c6.3807 3.2611 12.244 9.0976 15.453 15.381 3.7767 7.3964 4.3427 18.051 1.3766 25.911-2.9746 7.8824-9.4541 14.792-17.244 18.389l-6.3005 2.9092-49.5 0.19211c-36.502 0.14166-50.944-0.13494-55-1.0534zm13.358-8.2225c1.182-0.45358 0.7647-1.248-1.8714-3.5625-4.8446-4.2536-9.4862-14.006-9.4862-19.932 0-7.2589 0.50708-7.9221 6.0573-7.9221 3.3461 0 5.1129 0.48175 5.7155 1.5584 0.64978 1.1611 2.1529 1.4798 5.8957 1.25l5.0235-0.30842-10.57-22.5h-5.3828c-7.3082 0-13.756 2.3828-19.044 7.0374-14.579 12.833-10.01 37.077 8.215 43.591 3.7383 1.3363 12.812 1.7988 15.448 0.78738zm-6.6535-40.922 1.6717-3.5057 1.3121 3.1205c1.7063 4.0581 1.7781 3.8909-1.6717 3.8909h-2.9838zm30.344 6.7557 0.0481-5.75 2.9679 5.75c2.9118 5.6412 3.0489 5.75 7.2451 5.75 4.1571 0 4.3514-0.14739 6.9231-5.25l2.646-5.25 0.06085 5.25 0.060842 5.25h10v-23h-13.019l-3.2053 6.5c-1.7629 3.575-3.4621 6.5-3.776 6.5s-2.0236-2.9463-3.7994-6.5474l-3.2286-6.5474-12.472 0.59471-0.5655 22.5h10.066zm106.95 26.177c0-8.3862 0.20603-9.5332 1.6615-9.25 0.91381 0.17783 2.2115 1.8983 2.8838 3.8233l1.2224 3.5 1.1162-2.8151c0.61389-1.5483 1.1162-3.2358 1.1162-3.75 0-0.5142 0.9-0.9349 2-0.9349 1.8596 0 2 0.66667 2 9.5 0 5.6667-0.40351 9.5-1 9.5-0.57363 0-1.0348-3.3044-1.0816-7.75-0.0798-7.5838-0.11205-7.6803-1.5029-4.5-0.78171 1.7875-2.0299 3.25-2.7738 3.25s-1.8216-1.4625-2.395-3.25c-0.92369-2.8794-1.0542-2.3663-1.1447 4.5-0.05838 4.4319-0.53023 7.75-1.1021 7.75-0.59703 0-1-3.8578-1-9.5733zm15.016 8.8233c9e-3 -0.4125 1.0646-4.575 2.3469-9.25 1.9052-6.9461 2.7148-8.5571 4.4292-8.8123 2.2235-0.33101 1.9944-0.87006 5.5508 13.062 1.241 4.8616 1.2536 5.75 0.0817 5.75-0.76231 0-1.6745-1.1494-2.0271-2.5543-0.54047-2.1534-1.132-2.5065-3.7691-2.25-2.3674 0.23028-3.2057 0.85134-3.4475 2.5543-0.28369 1.9975-3.2039 3.3815-3.1649 1.5zm8.9789-7c-3e-3 -0.4125-0.52547-2.55-1.1609-4.75-1.0932-3.7848-1.1951-3.8655-1.8947-1.5-1.4145 4.7825-1.0783 7 1.0612 7 1.1 0 1.9975-0.3375 1.9944-0.75zm9.7556 6.6699c-1.412-0.82243-1.75-2.4195-1.75-8.2696 0-8.161 0.86864-9.6503 5.6286-9.6503 3.3724 0 7.7073 3.0547 5.4179 3.8179-0.67179 0.22393-1.7221-0.09348-2.3339-0.70536-3.2841-3.2841-6.7125 0.10246-6.7125 6.6306 0 5.0804 2.1862 8.1814 4.6914 6.6547 2.7093-1.651 2.9718-5.3979 0.37812-5.3979-1.1382 0-2.0696-0.45-2.0696-1s1.575-1 3.5-1c3.3024 0 3.5 0.18881 3.5 3.345 0 5.508-5.3598 8.4231-10.25 5.5749zm13.266 0.3301c9e-3 -0.4125 1.0646-4.575 2.3469-9.25 1.9052-6.9461 2.7148-8.5571 4.4292-8.8123 2.2235-0.33101 1.9944-0.87006 5.5508 13.062 1.241 4.8616 1.2536 5.75 0.0817 5.75-0.76231 0-1.6745-1.1494-2.0271-2.5543-0.54047-2.1534-1.132-2.5065-3.7691-2.25-2.3674 0.23028-3.2057 0.85134-3.4475 2.5543-0.28369 1.9975-3.2039 3.3815-3.1649 1.5zm8.9789-7c-3e-3 -0.4125-0.52547-2.55-1.1609-4.75-1.0932-3.7848-1.1951-3.8655-1.8947-1.5-1.4145 4.7825-1.0783 7 1.0612 7 1.1 0 1.9975-0.3375 1.9944-0.75zm8.0056 6.6745c0-0.59154 1.8-4.1576 4-7.9245s4-7.1079 4-7.4245-1.8-0.57553-4-0.57553-4-0.45-4-1 2.475-1 5.5-1c6.7227 0 6.8944 0.78423 2 9.1353-1.925 3.2845-3.5 6.1456-3.5 6.3579s1.6527 0.52572 3.6727 0.69642c2.02 0.1707 3.8575 0.87286 4.0833 1.5604 0.29829 0.90802-1.2537 1.25-5.6727 1.25-3.6737 0-6.0833-0.42602-6.0833-1.0755zm16 0c0-0.59154 1.8-4.1576 4-7.9245s4-7.1079 4-7.4245-1.8-0.57553-4-0.57553-4-0.45-4-1 2.475-1 5.5-1c6.7227 0 6.8944 0.78423 2 9.1353-1.925 3.2845-3.5 6.1456-3.5 6.3579s1.6527 0.52572 3.6727 0.69642c2.02 0.1707 3.8575 0.87286 4.0833 1.5604 0.29829 0.90802-1.2537 1.25-5.6727 1.25-3.6737 0-6.0833-0.42602-6.0833-1.0755zm16 0.14508c0-0.51175 1.0125-1.0742 2.25-1.25 2.0886-0.29663 2.25-0.82164 2.25-7.3196s-0.16139-7.0229-2.25-7.3196c-4.6394-0.6589-2.0226-2.1804 3.75-2.1804s8.3894 1.5215 3.75 2.1804c-2.0886 0.29663-2.25 0.82164-2.25 7.3196s0.16139 7.0229 2.25 7.3196c4.6394 0.6589 2.0226 2.1804-3.75 2.1804-3.3 0-6-0.4187-6-0.93045zm16-8.5696c0-8.6428 0.17023-9.5 1.8865-9.5 1.4097 0 2.533 1.7061 4.4446 6.75l2.5581 6.75 0.0554-6.75c0.04364-5.3087 0.37577-6.75 1.5555-6.75 1.2281 0 1.5 1.7222 1.5 9.5 0 8.5107-0.18902 9.5-1.8151 9.5-1.3337 0-2.4609-1.7903-4.25-6.75l-2.4349-6.75-0.29569 6.75c-0.22356 5.1035-0.65043 6.75-1.75 6.75-1.1704 0-1.4543-1.8549-1.4543-9.5zm17 8.6166c0-0.48585 0.9-1.1187 2-1.4064 1.7629-0.461 2-1.364 2-7.6166 0-6.427-0.18796-7.0936-2-7.0936-1.1 0-2-0.45-2-1s2.475-1 5.5-1 5.5 0.45 5.5 1-0.9 1-2 1c-1.8222 0-2 0.66667-2 7.5s0.17778 7.5 2 7.5c1.1 0 2 0.45 2 1s-2.475 1-5.5 1-5.5-0.39752-5.5-0.88337zm-129.98-25.867c9e-3 -0.4125 1.0646-4.575 2.3469-9.25 1.9052-6.9461 2.7148-8.5571 4.4292-8.8123 2.2235-0.33101 1.9944-0.87006 5.5508 13.062 1.241 4.8616 1.2536 5.75 0.0817 5.75-0.76231 0-1.6745-1.1494-2.0271-2.5543-0.54047-2.1534-1.132-2.5065-3.7691-2.25-2.3674 0.23028-3.2057 0.85134-3.4475 2.5543-0.28369 1.9975-3.2039 3.3815-3.1649 1.5zm8.9789-7c-3e-3 -0.4125-0.52547-2.55-1.1609-4.75-1.0932-3.7848-1.1951-3.8655-1.8947-1.5-1.4145 4.7825-1.0783 7 1.0612 7 1.1 0 1.9975-0.3375 1.9944-0.75zm8.0056-1.75c0-8.5195 0.18781-9.5 1.8196-9.5 1.3517 0 2.4924 1.8645 4.4354 7.25l2.6157 7.25 0.0646-7.25c0.05126-5.7491 0.37518-7.25 1.5646-7.25 1.2281 0 1.5 1.7222 1.5 9.5 0 8.6641-0.16705 9.5-1.8986 9.5-1.4561 0-2.563-1.806-4.75-7.75l-2.8514-7.75-0.29206 7.75c-0.41812 11.095-2.2079 9.6763-2.2079-1.75zm16 0v-9.5h4.4433c5.7033 0 7.5567 2.3846 7.5567 9.7225 0 6.6981-2.2242 9.2775-8 9.2775h-4zm8.8051 0.66882c0.32708-5.7156-0.85243-8.1688-3.9275-8.1688-1.6596 0-1.8776 0.82028-1.8776 7.0664v7.0664l2.75-0.31642c2.5712-0.29585 2.7698-0.66309 3.0551-5.6476zm7.1949-0.66882v-9.5h4.4286c4.992 0 7.5714 1.8738 7.5714 5.5 0 1.2964-0.74181 3.099-1.6485 4.0056-1.5313 1.5313-1.5313 1.8942 0 5.1054 1.9937 4.1809 2.008 4.389 0.30034 4.389-0.74146 0-2.1598-1.8-3.1519-4s-2.4104-4-3.1519-4c-0.90615 0-1.3481 1.3114-1.3481 4 0 2.8889-0.41667 4-1.5 4-1.2281 0-1.5-1.7222-1.5-9.5zm7.8375-1.3784c0.73562-0.46628 1.1856-1.9219 1-3.2347-0.24821-1.7555-1.065-2.4706-3.0875-2.7033-2.5451-0.29285-2.75-0.05069-2.75 3.25 0 3.6809 1.743 4.6495 4.8375 2.688zm8.1625 1.3784v-9.5h6c6.8268 0 8.2041 1.7255 1.75 2.1925-3.8029 0.27515-4.2833 0.59678-4.5664 3.0575-0.29928 2.601-0.0961 2.75 3.75 2.75 5.1106 0 5.3666 1.7717 0.31642 2.1896-3.2557 0.26945-3.7917 0.67286-4.0664 3.0604-0.30431 2.6447-0.1416 2.75 4.25 2.75 3.3924 0 4.5664 0.38566 4.5664 1.5 0 1.1667-1.3333 1.5-6 1.5h-6zm15 9.1815c0-0.17517 0.64308-2.5377 1.4291-5.25 0.78599-2.7123 1.9359-6.872 2.5553-9.2438 0.93137-3.5661 1.4958-4.2583 3.2617-4 2.1488 0.31426 2.1322 0.27015 6.2266 16.562 0.38631 1.5372 0.11856 2.25-0.8452 2.25-0.77585 0-1.693-1.125-2.0381-2.5-0.49262-1.9627-1.264-2.5-3.5894-2.5s-3.0967 0.53726-3.5894 2.5c-0.3451 1.375-1.2537 2.5-2.019 2.5-0.76537 0-1.3916-0.14332-1.3916-0.3185zm8.5221-10.432c-0.71734-3.8403-1.2092-4.9006-1.9329-4.1667-0.22594 0.22917-0.72602 2.1042-1.1113 4.1667-0.63857 3.4186-0.50407 3.75 1.5221 3.75s2.1607-0.33138 1.5221-3.75z"/>
<path d="m28.076 65.866c-10.407-1.7267-19.253-8.2459-24.241-17.866-3.4356-6.6255-3.7828-18.433-0.77754-26.441 2.6586-7.084 9.1239-14.005 16.443-17.602l5-2.4572h53c60.571 0 58.66-0.24465 68.145 8.7253 7.2799 6.885 9.8095 13 9.8351 23.775 0.0162 6.8283-0.42326 9.3999-2.2346 13.076-5.2431 10.64-13.754 16.99-25.275 18.86-7.9097 1.2833-92.094 1.2252-99.894-0.06895zm12.156-8.4319c0.31108-0.31108-1.3865-2.5741-3.7723-5.029-6.4127-6.5982-10.224-18.645-7.8529-24.824 0.84613-2.205 9.9342-2.224 11.166-0.02337 0.65343 1.1676 2.1667 1.4811 6.0347 1.25l5.1626-0.30842-10.989-22.762-7.2407 0.47283c-15.252 0.99599-24.648 10.156-25.548 24.907-0.93291 15.297 10.202 26.882 25.837 26.882 3.6503 0 6.8915-0.25452 7.2026-0.5656zm-7.6393-40.614 1.6443-3.1797 1.3459 2.4297c1.9392 3.5007 1.7636 3.9297-1.6089 3.9297h-3.0257zm30.455 6.4297 0.0481-5.75 2.9679 5.75c2.9118 5.6412 3.0489 5.75 7.2451 5.75 4.1571 0 4.3514-0.14739 6.9231-5.25l2.646-5.25 0.06085 5.25 0.060842 5.25h10v-23h-12.972l-6.8027 13.494-6.6541-13.494h-13.571v23h10zm106.95 26.25c0-7.5294 0.29386-9.5 1.4167-9.5 0.77916 0 2.0755 1.9125 2.8808 4.25l1.4641 4.25 1.1489-3c0.63188-1.65 1.3464-3.5625 1.5878-4.25s1.1281-1.25 1.9703-1.25c1.2677 0 1.5314 1.6357 1.5314 9.5 0 5.6667-0.40351 9.5-1 9.5-0.57801 0-1.041-3.4815-1.0972-8.25l-0.0972-8.25-1.5385 3.75c-0.84618 2.0625-2.1078 3.75-2.8035 3.75s-1.7132-1.6875-2.261-3.75c-0.89589-3.3731-1.0064-2.9209-1.0993 4.5-0.05966 4.7644-0.52582 8.25-1.1033 8.25-0.59649 0-1-3.8333-1-9.5zm15 9.2299c0-0.29491 3.7622-14.152 4.6101-16.98 0.50287-1.6772 4.3899-2.5565 4.3899-0.99297 0 0.41637 1.0824 4.6914 2.4054 9.5 1.9157 6.963 2.1232 8.743 1.019 8.743-0.7625 0-1.6749-1.1494-2.0274-2.5543-0.54047-2.1534-1.132-2.5065-3.7691-2.25-2.3674 0.23028-3.2057 0.85134-3.4475 2.5543-0.17575 1.2375-0.96325 2.25-1.75 2.25s-1.4304-0.12154-1.4304-0.2701zm8.9944-7.9799c-3e-3 -0.6875-0.52547-3.05-1.1609-5.25-1.0932-3.7848-1.1951-3.8655-1.8947-1.5-1.4842 5.0181-1.0886 8 1.0612 8 1.1 0 1.9975-0.5625 1.9944-1.25zm9.577 6.6786c-1.099-1.099-1.5714-3.4827-1.5714-7.9286 0-7.1879 1.4399-9.5 5.9164-9.5 1.5255 0 3.5881 0.9 4.5836 2 2.0358 2.2495 0.57577 2.6888-2.517 0.7573-3.4234-2.138-5.4376 0.10558-5.7781 6.4363-0.32766 6.0912 1.2001 8.4474 4.7471 7.3216 2.4459-0.77631 2.9168-5.5152 0.54799-5.5152-0.825 0-1.5-0.45-1.5-1s1.35-1 3-1c2.6133 0 3 0.35806 3 2.7775 0 6.1221-6.4581 9.6216-10.429 5.6511zm13.429 1.3013c0-0.29491 3.7622-14.152 4.6101-16.98 0.50287-1.6772 4.3899-2.5565 4.3899-0.99297 0 0.41637 1.0824 4.6914 2.4054 9.5 1.9157 6.963 2.1232 8.743 1.019 8.743-0.7625 0-1.6749-1.1494-2.0274-2.5543-0.54047-2.1534-1.132-2.5065-3.7691-2.25-2.3674 0.23028-3.2057 0.85134-3.4475 2.5543-0.17575 1.2375-0.96325 2.25-1.75 2.25s-1.4304-0.12154-1.4304-0.2701zm8.9944-7.9799c-3e-3 -0.6875-0.52547-3.05-1.1609-5.25-1.0932-3.7848-1.1951-3.8655-1.8947-1.5-1.4842 5.0181-1.0886 8 1.0612 8 1.1 0 1.9975-0.5625 1.9944-1.25zm8.0056 7.3378c0-0.50169 1.8-4.0342 4-7.8501 2.2-3.8158 4-7.2304 4-7.5878s-1.575-0.64994-3.5-0.64994-3.5-0.45-3.5-1 2.25-1 5-1c6.2832 0 6.3899 1.1053 0.9651 10l-3.9643 6.5 4.4996 0.30479c6.6556 0.45084 5.4634 2.1952-1.5004 2.1952-3.3 0-6-0.41047-6-0.91216zm16 0c0-0.50169 1.8-4.0342 4-7.8501 2.2-3.8158 4-7.2304 4-7.5878s-1.575-0.64994-3.5-0.64994-3.5-0.45-3.5-1 2.25-1 5-1c6.2832 0 6.3899 1.1053 0.9651 10l-3.9643 6.5 4.4996 0.30479c6.6556 0.45084 5.4634 2.1952-1.5004 2.1952-3.3 0-6-0.41047-6-0.91216zm17 0.02879c0-0.48585 0.9-1.1187 2-1.4064 1.7629-0.461 2-1.364 2-7.6166 0-6.427-0.18796-7.0936-2-7.0936-1.1 0-2-0.45-2-1s2.25-1 5-1 5 0.45 5 1-0.9 1-2 1c-1.812 0-2 0.66667-2 7.0936 0 6.2526 0.23712 7.1556 2 7.6166 3.7382 0.97755 2.0189 2.2897-3 2.2897-2.75 0-5-0.39752-5-0.88337zm15-8.6166c0-8.6458 0.16977-9.5 1.8882-9.5 1.4668 0 2.5268 1.8398 4.75 8.2445l2.8618 8.2445 0.29044-8.2445c0.40437-11.478 2.2096-10.453 2.2096 1.2555 0 8.4161-0.20163 9.5-1.7672 9.5-1.3057 0-2.546-2.1543-4.75-8.25l-2.9828-8.25-0.29044 8.25c-0.40425 11.483-2.2096 10.461-2.2096-1.25zm17 8.5c0-0.55 0.9-1 2-1 1.8222 0 2-0.66667 2-7.5s-0.17778-7.5-2-7.5c-1.1 0-2-0.45-2-1s2.475-1 5.5-1 5.5 0.45 5.5 1-0.9 1-2 1c-1.8222 0-2 0.66667-2 7.5s0.17778 7.5 2 7.5c1.1 0 2 0.45 2 1s-2.475 1-5.5 1-5.5-0.45-5.5-1zm-130-25.27c0-0.29491 3.7622-14.152 4.6101-16.98 0.50287-1.6772 4.3899-2.5565 4.3899-0.99297 0 0.41637 1.0824 4.6914 2.4054 9.5 1.9157 6.963 2.1232 8.743 1.019 8.743-0.7625 0-1.6749-1.1494-2.0274-2.5543-0.54047-2.1534-1.132-2.5065-3.7691-2.25-2.3674 0.23028-3.2057 0.85134-3.4475 2.5543-0.17575 1.2375-0.96325 2.25-1.75 2.25s-1.4304-0.12154-1.4304-0.2701zm8.9944-7.9799c-3e-3 -0.6875-0.52547-3.05-1.1609-5.25-1.0932-3.7848-1.1951-3.8655-1.8947-1.5-1.4842 5.0181-1.0886 8 1.0612 8 1.1 0 1.9975-0.5625 1.9944-1.25zm8.0056-1.25c0-8.4282 0.20005-9.5 1.7732-9.5 1.3067 0 2.4247 1.9071 4.25 7.25l2.4768 7.25 0.29381-7.25c0.22477-5.5463 0.636-7.25 1.75-7.25 1.1727 0 1.4562 1.8492 1.4562 9.5 0 8.6129-0.1746 9.5-1.8698 9.5-1.4275 0-2.5954-1.9516-4.9368-8.25l-3.067-8.25-0.0632 8.25c-0.03666 4.7912-0.48239 8.25-1.0631 8.25-0.59649 0-1-3.8333-1-9.5zm16 0v-9.5h4c5.8419 0 8 2.5628 8 9.5s-2.1581 9.5-8 9.5h-4zm7.0657 6.4648c1.5363-0.82222 1.9343-2.1183 1.9343-6.3 0-5.5103-1.1806-7.6648-4.2-7.6648-1.5733 0-1.8 0.94444-1.8 7.5 0 7.7189 0.43377 8.4086 4.0657 6.4648zm8.9343-6.4648v-9.5h4.4286c6.8465 0 9.9033 4.7658 5.8966 9.1931-1.5664 1.7308-1.5664 2.0779 0 5.3627 2.0286 4.254 2.0407 4.4442 0.28336 4.4442-0.76528 0-2.1116-1.8-2.9919-4-0.88027-2.2-2.2791-4-3.1086-4-1.0928 0-1.5081 1.1016-1.5081 4 0 2.8889-0.41667 4-1.5 4-1.2281 0-1.5-1.7222-1.5-9.5zm8.88-2.2758c1.3415-2.5067-0.44254-5.2242-3.4297-5.2242-2.1337 0-2.4503 0.45226-2.4503 3.5 0 3.0533 0.31455 3.5 2.4648 3.5 1.3556 0 2.8925-0.79912 3.4152-1.7758zm8.12 2.2758v-9.5h5.5c3.025 0 5.5 0.45 5.5 1s-2.025 1-4.5 1c-4.3333 0-4.5 0.11111-4.5 3 0 2.8333 0.22222 3 4 3 2.2 0 4 0.45 4 1s-1.8285 1-4.0634 1c-3.9819 0-4.0571 0.06514-3.75 3.25 0.29413 3.0505 0.57421 3.2689 4.5634 3.5575 6.1981 0.44845 5.2038 2.1925-1.25 2.1925h-5.5zm16.554 0.75c1.3314-4.8125 2.4263-9.0875 2.4332-9.5 7e-3 -0.4125 0.89508-0.75 1.9739-0.75 1.4486 0 2.233 1.0459 3 4 0.5712 2.2 1.5135 5.8281 2.0939 8.0625 0.58046 2.2344 1.3036 4.7094 1.607 5.5 0.33225 0.86581-0.05979 1.4375-0.98583 1.4375-0.84559 0-1.6812-1.0125-1.857-2.25-0.24408-1.7186-1.079-2.3234-3.5352-2.5608-2.735-0.26434-3.3118 0.07198-3.8584 2.25-0.35349 1.4084-1.2388 2.5608-1.9675 2.5608-1.0162 0-0.76085-2.0382 1.096-8.75zm6.0276-2.4625c-0.68284-4.2703-1.2144-5.4885-2.0362-4.6667-0.24981 0.24982-0.75733 2.3498-1.1278 4.6667-0.62427 3.904-0.50843 4.2125 1.582 4.2125s2.2063-0.30845 1.582-4.2125z"/>
<path d="m24 65.082c-9.4851-2.9603-17.545-10.592-21.054-19.935-2.7948-7.4417-2.4386-18.555 0.80742-25.187 3.072-6.2769 9.7066-12.75 16.247-15.852l5.5-2.6082h106l5.6415 2.7705c6.5924 3.2374 13.149 9.9449 16.183 16.554 3.2576 7.0978 3.0471 18.813-0.47292 26.324-3.2242 6.8791-9.4663 13.32-15.702 16.203-4.5547 2.1055-5.7265 2.1528-57.649 2.3302-29.15 0.099591-54.125-0.17004-55.5-0.59917zm15.846-7.6651c0.89059-0.28286-0.36991-2.3043-3.7281-5.9787-6.5185-7.1323-9.8578-17.739-7.5105-23.856 0.83599-2.1786 10.2-2.248 11.031-0.081787 0.41469 1.0807 2.1066 1.5 6.0519 1.5 3.012 0 5.3263-0.3776 5.143-0.83911-0.18333-0.46151-2.5833-5.6363-5.3333-11.5l-5-10.66-6.5903-4.035e-4c-18.811-0.0011519-31.267 16.726-25.869 34.74 3.763 12.56 19.231 20.67 31.805 16.676zm-7.8455-38.726c0-0.71988 0.60692-2.1389 1.3487-3.1534 1.2604-1.7238 1.4207-1.6381 2.448 1.3089 1.0383 2.9784 0.96345 3.1534-1.3487 3.1534-1.3504 0-2.448-0.58683-2.448-1.3089zm31.048 4.5589 0.0481-5.75 2.9679 5.75c2.947 5.7094 2.9997 5.75 7.4714 5.75 4.4615 0 4.5258-0.04892 6.902-5.25l2.3986-5.25 0.08193 5.25 0.081936 5.25h10v-23l-13.5 0.00488-6.1744 13.495-6.7549-13.5h-13.571v23h10zm106.95 26.25c0-7.5294 0.29386-9.5 1.4167-9.5 0.77916 0 2.0755 1.9125 2.8808 4.25l1.4641 4.25 1.1489-3c0.63188-1.65 1.3464-3.5625 1.5878-4.25s1.1281-1.25 1.9703-1.25c1.2677 0 1.5314 1.6357 1.5314 9.5 0 5.6667-0.40351 9.5-1 9.5-0.57801 0-1.041-3.4815-1.0972-8.25l-0.0972-8.25-1.5514 3.7838c-1.8295 4.4622-3.1566 4.3682-4.8593-0.34418-1.1741-3.2495-1.247-2.9836-1.3189 4.8104-0.04411 4.7826-0.49637 8.25-1.0761 8.25-0.59649 0-1-3.8333-1-9.5zm15.285 8.199c0.33218-0.86565 1.0789-3.402 1.6594-5.6364 0.58047-2.2344 1.5227-5.8625 2.0939-8.0625 0.71632-2.7589 1.5848-4 2.7993-4 1.3662 0 2.2538 1.88 3.9614 8.3909 1.2104 4.615 2.2007 8.89 2.2007 9.5 0 2.1234-1.7875 1.092-2.4106-1.3909-0.5159-2.0555-1.234-2.5-4.0389-2.5-2.7365 0-3.4746 0.42962-3.731 2.1717-0.17575 1.1944-0.95376 2.3808-1.7289 2.6364-0.9507 0.31352-1.2128-0.04742-0.80539-1.1091zm8.1997-9.949c-0.93638-5.7607-2.0928-6.6538-2.9183-2.2537-0.37617 2.0051-0.9307 4.2888-1.2323 5.0747-0.39172 1.0208 0.22144 1.429 2.1465 1.429 2.6122 0 2.6737-0.13048 2.0041-4.25zm10.17 9.4213c-2.2511-2.4874-2.3094-13.374-0.0836-15.6 2.0031-2.0031 6.8031-2.03 8.4486-0.04726 1.7529 2.1121 0.609 2.8856-1.9261 1.3024-3.475-2.1701-5.5408-0.03127-5.899 6.1076-0.33998 5.8263 0.99946 8.3239 4.2176 7.8641 2.604-0.37206 3.6839-5.7983 1.154-5.7983-0.86153 0-1.5664-0.45-1.5664-1s1.4089-1 3.1308-1c3.0589 0 3.1169 0.0861 2.5228 3.7467-0.96209 5.9286-6.4427 8.3539-9.9987 4.4245zm13.63 0.52774c0.33218-0.86565 1.0789-3.402 1.6594-5.6364 0.58047-2.2344 1.5227-5.8625 2.0939-8.0625 0.71632-2.7589 1.5848-4 2.7993-4 1.3662 0 2.2538 1.88 3.9614 8.3909 1.2104 4.615 2.2007 8.89 2.2007 9.5 0 2.1234-1.7875 1.092-2.4106-1.3909-0.5159-2.0555-1.234-2.5-4.0389-2.5-2.7365 0-3.4746 0.42962-3.731 2.1717-0.17575 1.1944-0.95376 2.3808-1.7289 2.6364-0.9507 0.31352-1.2128-0.04742-0.80539-1.1091zm8.1997-9.949c-0.93638-5.7607-2.0928-6.6538-2.9183-2.2537-0.37617 2.0051-0.9307 4.2888-1.2323 5.0747-0.39172 1.0208 0.22144 1.429 2.1465 1.429 2.6122 0 2.6737-0.13048 2.0041-4.25zm9.518 9.5c2e-3 -0.9625 1.7676-4.675 3.9243-8.25l3.9213-6.5-3.9243-0.3075c-5.6823-0.44525-4.825-2.1925 1.0757-2.1925 6.234 0 6.3192 0.80945 1 9.5-2.2 3.5944-4 6.7523-4 7.0176 0 0.26531 1.8 0.48239 4 0.48239s4 0.45 4 1-2.25 1-5 1c-4.0964 0-4.9994-0.31626-4.997-1.75zm16 0c2e-3 -0.9625 1.7676-4.675 3.9243-8.25l3.9213-6.5-3.9243-0.3075c-5.6823-0.44525-4.825-2.1925 1.0757-2.1925 6.234 0 6.3192 0.80945 1 9.5-2.2 3.5944-4 6.7523-4 7.0176 0 0.26531 1.8 0.48239 4 0.48239s4 0.45 4 1-2.25 1-5 1c-4.0964 0-4.9994-0.31626-4.997-1.75zm15.997 0.75c0-0.55 0.9-1 2-1 1.8222 0 2-0.66667 2-7.5s-0.17778-7.5-2-7.5c-1.1 0-2-0.45-2-1s2.25-1 5-1 5 0.45 5 1-0.9 1-2 1c-1.8222 0-2 0.66667-2 7.5s0.17778 7.5 2 7.5c1.1 0 2 0.45 2 1s-2.25 1-5 1-5-0.45-5-1zm15-8.5c0-8.4161 0.20163-9.5 1.7672-9.5 1.3057 0 2.546 2.1543 4.75 8.25l2.9828 8.25 0.29044-8.25c0.40572-11.525 2.2096-10.444 2.2096 1.3233 0 8.5074-0.19109 9.5365-1.7162 9.2428-1.1054-0.21287-2.6796-2.9403-4.4227-7.6627-1.4886-4.0327-2.9663-7.592-3.2838-7.9095-0.3175-0.3175-0.57727 3.0977-0.57727 7.5894 0 4.7778-0.41497 8.1667-1 8.1667-0.59649 0-1-3.8333-1-9.5zm17 8.5c0-0.55 0.9-1 2-1 1.8222 0 2-0.66667 2-7.5s-0.17778-7.5-2-7.5c-1.1 0-2-0.45-2-1s2.475-1 5.5-1 5.5 0.45 5.5 1-1.1447 1-2.5438 1c-2.5182 0-2.5408 0.07304-2.25 7.25 0.26961 6.6528 0.47916 7.2763 2.5438 7.5696 4.4453 0.63134 2.1363 2.1804-3.25 2.1804-3.025 0-5.5-0.45-5.5-1zm-129.71-26.301c0.33218-0.86565 1.0789-3.402 1.6594-5.6364 0.58047-2.2344 1.5227-5.8625 2.0939-8.0625 0.71632-2.7589 1.5848-4 2.7993-4 1.3662 0 2.2538 1.88 3.9614 8.3909 1.2104 4.615 2.2007 8.89 2.2007 9.5 0 2.1234-1.7875 1.092-2.4106-1.3909-0.5159-2.0555-1.234-2.5-4.0389-2.5-2.7365 0-3.4746 0.42962-3.731 2.1717-0.17575 1.1944-0.95376 2.3808-1.7289 2.6364-0.9507 0.31352-1.2128-0.04742-0.80539-1.1091zm8.1997-9.949c-0.93638-5.7607-2.0928-6.6538-2.9183-2.2537-0.37617 2.0051-0.9307 4.2888-1.2323 5.0747-0.39172 1.0208 0.22144 1.429 2.1465 1.429 2.6122 0 2.6737-0.13048 2.0041-4.25zm8.515 1.6767c0-8.4177 0.20228-9.5343 1.6757-9.25 1.0592 0.20436 2.6336 2.9709 4.2792 7.5192 1.432 3.9578 2.8535 7.4459 3.159 7.7514 0.3055 0.3055 0.34702-3.0452 0.0923-7.4459-0.32124-5.5486-0.11729-8.0014 0.66525-8.0014 0.75879 0 1.1285 3.1122 1.1285 9.5 0 12.222-1.5653 12.572-5.5769 1.25l-2.9231-8.25-0.29044 8.25c-0.40572 11.525-2.2096 10.444-2.2096-1.3233zm16 0.07332v-9.5h3.8089c5.7222 0 7.4245 1.7693 7.9643 8.2778 0.41309 4.9813 0.18757 5.8524-2.1098 8.1499-1.7958 1.7958-3.6427 2.5724-6.1178 2.5724h-3.5454v-9.5zm7.8 6.3c0.66-0.66 1.2-3.8014 1.2-6.9809 0-5.2965-0.20474-5.8323-2.4432-6.3941-1.3438-0.33726-2.9188-0.31927-3.5 0.03996-1.1446 0.7074-1.4841 12.775-0.39017 13.868 1.0613 1.0613 3.8259 0.7741 5.1333-0.53333zm8.2-6.3v-9.5h4.345c6.6652 0 9.8858 4.8775 6.0322 9.1357-1.4951 1.6521-1.4958 2.1107-8e-3 5.8287 1.2052 3.012 1.2997 4.033 0.3728 4.0254-0.68304-0.0056-2.0115-1.842-2.9522-4.081-2.237-5.3243-5.1445-5.1429-5.6 0.34945-0.17079 2.0579-0.73329 3.7417-1.2501 3.7417-0.52024 0-0.93963-4.2402-0.93963-9.5zm9.0696-2.0838c1.889-2.2761-0.07915-4.9162-3.6649-4.9162-2.9552 0-4.1768 2.0456-3.0207 5.0584 0.74001 1.9284 5.043 1.8369 6.6855-0.14224zm7.9304 2.0838v-9.5h5.5c3.025 0 5.5 0.45 5.5 1s-2.025 1-4.5 1c-4.3333 0-4.5 0.11111-4.5 3 0 2.8333 0.22222 3 4 3 2.2 0 4 0.45 4 1s-1.8 1-4 1c-3.9048 0-4 0.08333-4 3.5 0 3.4815 0.0238 3.5 4.5 3.5 2.475 0 4.5 0.45 4.5 1s-2.475 1-5.5 1h-5.5zm16.595 0.75703c1.323-4.8086 2.4054-9.0836 2.4054-9.5s0.9-0.75703 2-0.75703 2 0.19253 2 0.42784 1.0925 4.5103 2.4279 9.5c1.9051 7.1186 2.1354 9.0722 1.0696 9.0722-0.74707 0-1.5021-1.0125-1.6779-2.25-0.26187-1.8439-0.95127-2.25-3.8196-2.25s-3.5577 0.4061-3.8196 2.25c-0.17575 1.2375-0.9207 2.25-1.6554 2.25-1.033 0-0.79042-1.9826 1.0696-8.743zm6.0347-3.257c-0.56333-2.75-1.3265-5-1.6959-5-0.61772 0-1.8966 5.8209-1.9224 8.75-6e-3 0.6875 1.036 1.25 2.3158 1.25 2.262 0 2.2982-0.13914 1.3025-5z"/>
</g>
</svg>
